<?xml version="1.0" encoding="utf-8"?>
<!-- Generator: Adobe Illustrator 25.1.0, SVG Export Plug-In . SVG Version: 6.00 Build 0)  -->
<svg version="1.1" xmlns="http://www.w3.org/2000/svg" xmlns:xlink="http://www.w3.org/1999/xlink" x="0px" y="0px"
	 viewBox="0 0 300 200" style="enable-background:new 0 0 300 200;" xml:space="preserve">
<style type="text/css">
	.st0{fill:none;stroke:#000000;stroke-width:14;stroke-linecap:round;stroke-linejoin:round;stroke-miterlimit:10;}
	.st1{fill:none;stroke:#000000;stroke-width:19;stroke-linecap:round;stroke-linejoin:round;stroke-miterlimit:10;}
</style>
<g id="base">
	<path d="M19.79,85.21c0.33-0.19,0.86-0.42,1.58-0.7c0.72-0.27,1.46-0.45,2.22-0.51c1.33-0.12,2.45-0.02,3.37,0.3
		c0.92,0.32,1.51,0.85,1.77,1.6c0.46,1.28,0.9,2.47,1.3,3.57c0.4,1.11,0.79,2.16,1.17,3.17c0.38,1.01,0.75,2.01,1.11,3.01
		c0.36,1,0.72,2.04,1.07,3.14l0.24-0.02c0.11-1.97,0.19-3.85,0.25-5.64c0.06-1.79,0.11-3.55,0.14-5.27
		c0.04-1.72,0.07-3.43,0.11-5.12c0.04-1.69,0.07-3.41,0.11-5.15c1.11-0.78,2.32-1.22,3.65-1.34c1.17-0.11,2.2,0.06,3.1,0.49
		c0.9,0.43,1.4,1.26,1.51,2.47c0.06,0.7,0.08,1.7,0.06,3.01c-0.03,1.3-0.08,2.77-0.18,4.38c-0.09,1.62-0.22,3.32-0.37,5.1
		c-0.16,1.78-0.34,3.49-0.54,5.11c-0.2,1.63-0.43,3.1-0.67,4.43c-0.25,1.32-0.5,2.35-0.75,3.08c-0.43,0.49-1.17,0.93-2.22,1.31
		c-1.05,0.38-2.14,0.63-3.27,0.73c-1.48,0.13-2.76,0.05-3.82-0.26c-1.06-0.31-1.74-0.82-2.02-1.53c-0.53-1.24-1.1-2.71-1.74-4.43
		c-0.63-1.71-1.31-3.6-2.04-5.65c-0.26,2.11-0.53,4.18-0.82,6.2c-0.29,2.02-0.57,3.73-0.82,5.14c-0.43,0.49-1.11,0.92-2.03,1.29
		c-0.92,0.37-1.95,0.61-3.09,0.71c-1.42,0.13-2.72,0.04-3.91-0.25c-1.19-0.29-1.99-0.79-2.4-1.5c-0.34-0.55-0.72-1.37-1.15-2.48
		c-0.43-1.1-0.89-2.36-1.37-3.78c-0.48-1.42-0.98-2.96-1.49-4.62c-0.52-1.66-1-3.32-1.45-4.98c-0.45-1.66-0.88-3.29-1.28-4.88
		c-0.4-1.59-0.72-3.05-0.97-4.37c0.4-0.45,0.98-0.89,1.74-1.31c0.76-0.42,1.59-0.67,2.51-0.76c1.2-0.11,2.21,0.07,3.03,0.52
		c0.82,0.46,1.38,1.3,1.68,2.53c0.8,3.21,1.46,5.88,1.99,8.02c0.53,2.14,0.96,3.89,1.29,5.26c0.33,1.37,0.58,2.43,0.74,3.19
		c0.16,0.76,0.31,1.35,0.45,1.79l0.24-0.02c0.17-1.3,0.33-2.51,0.49-3.61c0.15-1.11,0.32-2.22,0.49-3.35
		c0.17-1.12,0.34-2.33,0.51-3.61C19.46,88.34,19.63,86.87,19.79,85.21z M60.99,104.36c-1.86,0.17-3.61,0.06-5.25-0.32
		c-1.64-0.38-3.1-1.05-4.38-1.99c-1.28-0.95-2.33-2.18-3.15-3.72c-0.82-1.53-1.33-3.37-1.52-5.51c-0.19-2.11-0.01-3.95,0.53-5.52
		c0.54-1.58,1.32-2.9,2.34-3.97c1.02-1.07,2.21-1.9,3.59-2.5c1.38-0.59,2.81-0.95,4.29-1.09c1.67-0.15,3.22-0.03,4.64,0.35
		c1.42,0.39,2.67,0.98,3.74,1.78c1.07,0.8,1.94,1.8,2.61,3c0.66,1.19,1.06,2.52,1.2,3.99c0.1,1.08-0.13,1.94-0.68,2.57
		c-0.55,0.63-1.35,1.07-2.41,1.33l-11.53,2.83c0.44,1.02,1.22,1.75,2.34,2.18c1.12,0.43,2.37,0.58,3.76,0.46
		c1.29-0.12,2.5-0.39,3.62-0.83c1.12-0.44,2.02-0.91,2.71-1.43c0.53,0.27,1,0.68,1.4,1.22c0.4,0.54,0.63,1.13,0.69,1.77
		c0.13,1.44-0.44,2.56-1.7,3.39c-0.96,0.63-2.06,1.1-3.31,1.41C63.27,104.06,62.09,104.26,60.99,104.36z M57.97,85.68
		c-0.76,0.07-1.4,0.26-1.93,0.56c-0.53,0.31-0.95,0.67-1.26,1.1c-0.31,0.43-0.53,0.9-0.66,1.41c-0.13,0.51-0.19,1.02-0.17,1.53
		l7.97-2.07c-0.15-0.63-0.56-1.24-1.21-1.82C60.05,85.81,59.13,85.57,57.97,85.68z M82.93,101.56c-0.34,0.09-0.85,0.23-1.51,0.4
		c-0.67,0.17-1.35,0.29-2.04,0.35c-0.69,0.06-1.32,0.07-1.88,0.03c-0.56-0.05-1.04-0.2-1.45-0.45c-0.4-0.25-0.73-0.62-0.98-1.09
		c-0.25-0.48-0.41-1.11-0.48-1.91l-2.5-27.75c0.34-0.09,0.85-0.23,1.51-0.4c0.67-0.17,1.35-0.29,2.04-0.35
		c0.69-0.06,1.32-0.07,1.88-0.03c0.56,0.05,1.04,0.19,1.45,0.45c0.4,0.25,0.73,0.62,0.98,1.09c0.25,0.48,0.41,1.11,0.48,1.91
		L82.93,101.56z M99.38,82.42c-0.79,0.07-1.53,0.27-2.21,0.59c-0.69,0.32-1.27,0.75-1.74,1.29c-0.48,0.54-0.84,1.19-1.09,1.96
		c-0.25,0.76-0.33,1.64-0.24,2.63c0.18,1.98,0.87,3.41,2.08,4.3c1.21,0.89,2.62,1.26,4.23,1.11c0.95-0.09,1.76-0.27,2.43-0.56
		c0.67-0.29,1.27-0.58,1.78-0.88c0.67,0.39,1.19,0.83,1.55,1.33c0.36,0.5,0.58,1.11,0.64,1.85c0.12,1.31-0.41,2.38-1.57,3.2
		s-2.84,1.34-5.02,1.54c-1.99,0.18-3.81,0.05-5.48-0.4c-1.66-0.44-3.12-1.15-4.37-2.11c-1.25-0.96-2.26-2.17-3.02-3.61
		c-0.77-1.44-1.23-3.07-1.4-4.89c-0.19-2.11-0.02-3.98,0.52-5.62c0.54-1.64,1.34-3.02,2.42-4.15c1.07-1.13,2.35-2.01,3.84-2.66
		c1.48-0.65,3.08-1.05,4.78-1.2c2.27-0.21,4.06,0.05,5.37,0.77c1.31,0.72,2.02,1.73,2.14,3.04c0.05,0.61-0.04,1.19-0.27,1.74
		c-0.24,0.55-0.53,1.04-0.87,1.45c-0.56-0.21-1.23-0.4-2.01-0.57C101.1,82.39,100.26,82.34,99.38,82.42z M133.9,85.29
		c0.18,1.98,0.04,3.77-0.42,5.37c-0.46,1.6-1.19,2.98-2.18,4.13c-0.99,1.15-2.22,2.07-3.69,2.74c-1.47,0.68-3.13,1.1-4.99,1.27
		c-1.86,0.17-3.58,0.03-5.14-0.4c-1.57-0.44-2.94-1.14-4.13-2.11c-1.19-0.97-2.15-2.19-2.88-3.67c-0.74-1.48-1.19-3.17-1.37-5.09
		c-0.17-1.88-0.02-3.62,0.44-5.2c0.46-1.59,1.19-2.96,2.18-4.13c0.99-1.17,2.22-2.11,3.68-2.82c1.46-0.71,3.12-1.15,4.99-1.32
		c1.86-0.17,3.58-0.03,5.14,0.43c1.57,0.45,2.94,1.17,4.13,2.14c1.19,0.97,2.15,2.19,2.88,3.67
		C133.28,81.77,133.74,83.44,133.9,85.29z M117.34,86.78c0.18,1.95,0.68,3.4,1.52,4.37c0.84,0.97,1.92,1.39,3.24,1.28
		c1.33-0.12,2.3-0.74,2.91-1.85c0.62-1.12,0.84-2.63,0.66-4.55c-0.17-1.91-0.67-3.36-1.49-4.33c-0.82-0.97-1.89-1.4-3.22-1.28
		c-1.33,0.12-2.3,0.73-2.94,1.83C117.39,83.36,117.16,84.87,117.34,86.78z M147.75,71.59c1.29-0.12,2.58-0.05,3.86,0.21
		c1.28,0.25,2.41,0.71,3.39,1.36c0.89-0.72,1.91-1.35,3.05-1.87c1.15-0.52,2.55-0.86,4.23-1.01c1.2-0.11,2.39-0.05,3.57,0.16
		c1.18,0.22,2.25,0.62,3.21,1.23c0.96,0.61,1.76,1.45,2.4,2.53c0.64,1.08,1.03,2.44,1.18,4.07L174,93.34
		c-0.31,0.12-0.8,0.26-1.47,0.42c-0.67,0.16-1.37,0.27-2.09,0.33c-0.69,0.06-1.32,0.07-1.88,0.03c-0.56-0.05-1.04-0.2-1.45-0.45
		c-0.4-0.25-0.73-0.62-0.98-1.09c-0.25-0.48-0.41-1.11-0.48-1.91l-1.03-11.43c-0.09-0.96-0.42-1.63-0.99-2.01
		c-0.58-0.38-1.32-0.53-2.24-0.45c-0.44,0.04-0.91,0.19-1.39,0.44c-0.49,0.25-0.85,0.5-1.08,0.75c0.04,0.13,0.07,0.24,0.08,0.35
		c0.01,0.11,0.02,0.22,0.03,0.31l1.44,15.93c-0.34,0.13-0.84,0.27-1.51,0.43c-0.67,0.16-1.35,0.27-2.05,0.33
		c-0.69,0.06-1.32,0.07-1.88,0.03c-0.56-0.05-1.04-0.2-1.45-0.45c-0.4-0.25-0.73-0.62-0.98-1.09c-0.25-0.48-0.41-1.11-0.48-1.91
		l-1.03-11.43c-0.09-0.96-0.44-1.62-1.06-2c-0.62-0.38-1.34-0.53-2.16-0.46c-0.57,0.05-1.05,0.18-1.44,0.4
		c-0.39,0.21-0.73,0.41-1,0.6l1.52,16.79c-0.31,0.12-0.8,0.26-1.47,0.42c-0.67,0.16-1.37,0.27-2.09,0.33
		c-0.69,0.06-1.32,0.07-1.88,0.03c-0.56-0.05-1.04-0.2-1.45-0.45c-0.4-0.25-0.73-0.62-0.98-1.09c-0.25-0.48-0.41-1.11-0.48-1.91
		l-1.3-14.45c-0.08-0.86,0.04-1.56,0.36-2.11c0.32-0.54,0.77-1.07,1.36-1.57c1-0.86,2.28-1.6,3.83-2.23
		C144.37,72.14,146.01,71.75,147.75,71.59z M191.16,92.61c-1.86,0.17-3.61,0.06-5.25-0.32c-1.64-0.38-3.1-1.05-4.38-1.99
		c-1.28-0.95-2.33-2.19-3.15-3.72c-0.82-1.53-1.33-3.37-1.52-5.51c-0.19-2.11-0.01-3.95,0.53-5.52c0.54-1.58,1.32-2.9,2.34-3.97
		c1.02-1.07,2.21-1.9,3.59-2.5c1.38-0.59,2.81-0.95,4.29-1.09c1.67-0.15,3.22-0.03,4.64,0.35c1.42,0.39,2.67,0.98,3.74,1.78
		c1.07,0.8,1.94,1.8,2.61,3c0.66,1.19,1.06,2.53,1.2,3.99c0.1,1.08-0.13,1.94-0.68,2.57c-0.55,0.63-1.35,1.07-2.41,1.33l-11.53,2.83
		c0.44,1.02,1.22,1.75,2.34,2.18c1.12,0.43,2.37,0.58,3.76,0.46c1.29-0.12,2.5-0.39,3.62-0.83c1.12-0.44,2.02-0.91,2.71-1.43
		c0.53,0.27,1,0.68,1.4,1.22c0.4,0.54,0.63,1.13,0.68,1.77c0.13,1.44-0.44,2.56-1.7,3.39c-0.96,0.63-2.06,1.1-3.31,1.41
		C193.44,92.31,192.27,92.51,191.16,92.61z M188.14,73.93c-0.76,0.07-1.4,0.26-1.93,0.56c-0.53,0.31-0.95,0.67-1.26,1.1
		c-0.31,0.43-0.53,0.9-0.66,1.41c-0.13,0.51-0.19,1.02-0.17,1.53l7.97-2.07c-0.15-0.63-0.56-1.23-1.21-1.82
		C190.22,74.06,189.31,73.82,188.14,73.93z M221.71,81.03c0.07,0.83,0.39,1.4,0.94,1.7c0.55,0.3,1.3,0.41,2.25,0.33
		c0.47-0.04,0.96-0.13,1.46-0.25c0.5-0.12,0.93-0.27,1.3-0.43c0.32,0.33,0.59,0.69,0.84,1.11c0.24,0.41,0.39,0.92,0.45,1.53
		c0.11,1.21-0.25,2.24-1.08,3.09c-0.83,0.85-2.38,1.37-4.65,1.58c-2.78,0.25-4.97-0.19-6.59-1.34c-1.61-1.14-2.55-3.15-2.81-6.02
		l-1.85-20.48c0.34-0.13,0.83-0.28,1.46-0.45c0.64-0.17,1.32-0.29,2.04-0.35c1.39-0.13,2.49,0.02,3.31,0.45
		c0.82,0.43,1.3,1.43,1.44,3.03l0.28,3.06l6.2-0.56c0.22,0.33,0.44,0.76,0.66,1.27c0.22,0.51,0.36,1.09,0.42,1.72
		c0.1,1.12-0.07,1.94-0.52,2.48c-0.45,0.54-1.08,0.85-1.9,0.92l-4.31,0.39L221.71,81.03z M256.08,74.26
		c0.18,1.98,0.04,3.77-0.42,5.37c-0.46,1.6-1.19,2.98-2.18,4.13c-0.99,1.15-2.22,2.07-3.69,2.74c-1.47,0.68-3.13,1.1-4.99,1.27
		c-1.86,0.17-3.58,0.03-5.14-0.4c-1.57-0.44-2.94-1.14-4.13-2.11c-1.19-0.97-2.15-2.19-2.88-3.67c-0.74-1.48-1.19-3.17-1.37-5.09
		c-0.17-1.88-0.02-3.62,0.44-5.2c0.46-1.59,1.19-2.96,2.18-4.13c0.99-1.17,2.22-2.11,3.68-2.82c1.46-0.71,3.12-1.15,4.99-1.32
		c1.86-0.17,3.58-0.02,5.14,0.43c1.57,0.45,2.94,1.17,4.13,2.14c1.19,0.97,2.15,2.19,2.88,3.67
		C255.46,70.75,255.91,72.41,256.08,74.26z M239.51,75.76c0.18,1.95,0.68,3.4,1.52,4.37c0.84,0.97,1.92,1.39,3.24,1.28
		c1.33-0.12,2.3-0.74,2.91-1.85s0.84-2.63,0.66-4.55c-0.17-1.91-0.67-3.36-1.49-4.33c-0.82-0.97-1.89-1.4-3.22-1.28
		c-1.33,0.12-2.3,0.73-2.94,1.83C239.57,72.33,239.34,73.84,239.51,75.76z M67.71,142.84c-0.34,0.13-0.87,0.27-1.61,0.43
		c-0.73,0.16-1.46,0.28-2.19,0.34c-0.73,0.07-1.37,0.07-1.93,0.01c-0.56-0.06-1.05-0.22-1.45-0.47c-0.4-0.25-0.72-0.63-0.96-1.12
		c-0.24-0.49-0.39-1.15-0.47-1.98l-2.28-25.26c0.34-0.1,0.89-0.23,1.63-0.41c0.75-0.18,1.47-0.3,2.16-0.36
		c0.73-0.07,1.37-0.07,1.93-0.01c0.56,0.06,1.05,0.22,1.45,0.47c0.4,0.25,0.72,0.63,0.96,1.12c0.24,0.49,0.39,1.16,0.47,1.98
		L67.71,142.84z M92.04,133.84c0.22,2.42-0.51,4.4-2.18,5.94c-1.67,1.53-4.26,2.46-7.77,2.78c-1.33,0.12-2.56,0.13-3.72,0.05
		c-1.15-0.09-2.15-0.3-2.99-0.62c-0.84-0.33-1.52-0.77-2.03-1.34c-0.51-0.56-0.81-1.26-0.88-2.09c-0.07-0.77,0.03-1.42,0.3-1.98
		c0.27-0.55,0.61-1.03,1.02-1.42c0.96,0.43,2.05,0.79,3.27,1.08c1.22,0.29,2.6,0.37,4.15,0.23c0.98-0.09,1.71-0.3,2.21-0.63
		c0.49-0.33,0.72-0.74,0.68-1.22c-0.04-0.45-0.26-0.78-0.66-1c-0.4-0.22-1.05-0.37-1.95-0.45L80.04,133
		c-2.79-0.29-4.91-0.96-6.36-2.01c-1.45-1.04-2.27-2.65-2.46-4.82c-0.11-1.18,0.05-2.27,0.47-3.27c0.42-1,1.06-1.86,1.91-2.58
		c0.86-0.72,1.91-1.31,3.16-1.78c1.25-0.47,2.64-0.77,4.19-0.91c1.17-0.11,2.27-0.12,3.31-0.03c1.04,0.08,1.96,0.27,2.75,0.55
		c0.79,0.28,1.43,0.68,1.92,1.2c0.49,0.52,0.77,1.16,0.84,1.93c0.07,0.73-0.01,1.38-0.23,1.93c-0.22,0.55-0.52,1.02-0.9,1.41
		c-0.27-0.14-0.66-0.27-1.18-0.4c-0.52-0.13-1.09-0.24-1.7-0.33c-0.61-0.09-1.23-0.15-1.86-0.19c-0.62-0.04-1.19-0.04-1.69,0.01
		c-1.04,0.09-1.84,0.29-2.38,0.58c-0.55,0.29-0.8,0.69-0.75,1.2c0.03,0.35,0.22,0.62,0.55,0.82c0.34,0.19,0.95,0.35,1.86,0.46
		l1.5,0.2c3.09,0.43,5.33,1.2,6.72,2.31C91.09,130.37,91.87,131.9,92.04,133.84z M115.33,131.74c0.22,2.42-0.51,4.4-2.18,5.94
		s-4.26,2.46-7.77,2.78c-1.33,0.12-2.56,0.13-3.72,0.05c-1.15-0.09-2.15-0.3-2.99-0.62c-0.84-0.33-1.52-0.77-2.03-1.34
		c-0.51-0.56-0.81-1.26-0.88-2.09c-0.07-0.77,0.03-1.43,0.3-1.98c0.27-0.55,0.61-1.03,1.02-1.42c0.96,0.43,2.05,0.79,3.27,1.08
		c1.22,0.29,2.6,0.37,4.15,0.23c0.98-0.09,1.71-0.3,2.21-0.63c0.49-0.33,0.72-0.74,0.68-1.22c-0.04-0.45-0.26-0.78-0.66-1
		c-0.4-0.22-1.05-0.37-1.95-0.45l-1.45-0.16c-2.79-0.29-4.92-0.96-6.36-2.01c-1.45-1.04-2.27-2.65-2.46-4.82
		c-0.11-1.18,0.05-2.27,0.47-3.27c0.42-1,1.06-1.86,1.91-2.58c0.86-0.72,1.91-1.31,3.16-1.78c1.25-0.47,2.64-0.77,4.19-0.91
		c1.17-0.11,2.27-0.12,3.31-0.03c1.04,0.08,1.96,0.27,2.75,0.55c0.79,0.28,1.43,0.68,1.92,1.2c0.49,0.52,0.77,1.16,0.84,1.93
		c0.07,0.73-0.01,1.38-0.23,1.93c-0.22,0.55-0.52,1.02-0.9,1.41c-0.27-0.14-0.66-0.27-1.18-0.4c-0.52-0.13-1.09-0.24-1.7-0.33
		c-0.61-0.09-1.23-0.15-1.85-0.19c-0.62-0.04-1.19-0.04-1.69,0.01c-1.04,0.09-1.84,0.29-2.38,0.58c-0.55,0.29-0.8,0.69-0.75,1.2
		c0.03,0.35,0.22,0.62,0.55,0.82c0.34,0.19,0.95,0.35,1.86,0.46l1.5,0.2c3.09,0.43,5.33,1.2,6.72,2.31
		C114.37,128.27,115.16,129.8,115.33,131.74z M142.6,124.55c0.18,1.98,0.04,3.77-0.42,5.37c-0.46,1.6-1.19,2.98-2.18,4.13
		c-0.99,1.15-2.22,2.07-3.69,2.74c-1.47,0.68-3.13,1.1-4.99,1.27c-1.86,0.17-3.58,0.03-5.14-0.4c-1.57-0.44-2.94-1.14-4.13-2.11
		c-1.19-0.97-2.15-2.19-2.88-3.67c-0.74-1.48-1.19-3.17-1.37-5.09c-0.17-1.88-0.02-3.62,0.44-5.2c0.46-1.59,1.19-2.96,2.18-4.13
		c0.99-1.17,2.22-2.11,3.68-2.82c1.46-0.71,3.13-1.15,4.99-1.32c1.86-0.17,3.58-0.02,5.14,0.43c1.57,0.45,2.94,1.17,4.13,2.14
		c1.19,0.97,2.15,2.19,2.88,3.67C141.98,121.04,142.43,122.7,142.6,124.55z M126.03,126.05c0.18,1.95,0.68,3.4,1.52,4.37
		c0.83,0.97,1.92,1.39,3.24,1.28c1.33-0.12,2.3-0.74,2.91-1.85c0.62-1.12,0.84-2.63,0.66-4.55c-0.17-1.91-0.67-3.36-1.49-4.33
		c-0.82-0.97-1.89-1.4-3.22-1.28c-1.33,0.12-2.3,0.73-2.94,1.83C126.09,122.63,125.86,124.14,126.03,126.05z M168.94,111.81
		c0.33-0.19,0.86-0.42,1.58-0.7c0.72-0.27,1.46-0.45,2.22-0.51c1.33-0.12,2.45-0.02,3.37,0.3c0.92,0.32,1.51,0.85,1.77,1.6
		c0.46,1.28,0.9,2.47,1.3,3.57c0.4,1.11,0.79,2.16,1.17,3.17c0.38,1.01,0.75,2.02,1.11,3.01c0.36,1,0.72,2.04,1.07,3.14l0.24-0.02
		c0.11-1.97,0.19-3.85,0.25-5.64c0.06-1.79,0.11-3.55,0.14-5.27c0.04-1.72,0.07-3.43,0.11-5.12c0.04-1.69,0.07-3.41,0.11-5.15
		c1.11-0.77,2.32-1.22,3.65-1.34c1.17-0.11,2.2,0.06,3.1,0.49c0.9,0.43,1.4,1.26,1.51,2.47c0.06,0.7,0.08,1.71,0.06,3.01
		c-0.03,1.3-0.08,2.77-0.18,4.38c-0.09,1.62-0.22,3.32-0.37,5.1c-0.16,1.78-0.34,3.49-0.54,5.11c-0.2,1.63-0.43,3.1-0.67,4.43
		c-0.25,1.32-0.5,2.35-0.75,3.08c-0.43,0.49-1.17,0.93-2.22,1.31c-1.05,0.38-2.14,0.63-3.27,0.73c-1.48,0.13-2.76,0.05-3.82-0.26
		c-1.06-0.31-1.74-0.82-2.02-1.53c-0.53-1.24-1.1-2.71-1.74-4.43c-0.63-1.71-1.31-3.6-2.04-5.65c-0.26,2.11-0.53,4.18-0.82,6.2
		c-0.29,2.02-0.57,3.73-0.82,5.14c-0.43,0.49-1.11,0.92-2.03,1.29c-0.92,0.37-1.95,0.61-3.09,0.71c-1.42,0.13-2.72,0.04-3.91-0.25
		c-1.19-0.29-1.99-0.79-2.4-1.5c-0.34-0.55-0.72-1.37-1.15-2.48c-0.43-1.1-0.89-2.36-1.37-3.78c-0.48-1.42-0.98-2.96-1.49-4.62
		c-0.52-1.66-1-3.32-1.45-4.98c-0.45-1.66-0.88-3.29-1.28-4.88c-0.4-1.59-0.72-3.05-0.97-4.37c0.4-0.45,0.98-0.89,1.74-1.32
		c0.76-0.42,1.59-0.67,2.51-0.76c1.2-0.11,2.21,0.07,3.03,0.52c0.82,0.46,1.38,1.3,1.68,2.53c0.8,3.21,1.46,5.88,1.99,8.02
		c0.53,2.14,0.95,3.89,1.29,5.26c0.33,1.37,0.58,2.43,0.74,3.19c0.16,0.76,0.31,1.35,0.45,1.79l0.24-0.02
		c0.17-1.3,0.33-2.51,0.49-3.61c0.15-1.11,0.32-2.22,0.48-3.35c0.17-1.12,0.34-2.33,0.51-3.61
		C168.6,114.93,168.77,113.46,168.94,111.81z M220.66,117.51c0.18,1.98,0.04,3.77-0.42,5.37c-0.46,1.6-1.19,2.98-2.18,4.13
		c-0.99,1.15-2.22,2.07-3.69,2.74c-1.47,0.68-3.13,1.1-4.99,1.27c-1.86,0.17-3.58,0.03-5.14-0.4c-1.57-0.44-2.94-1.14-4.13-2.11
		c-1.19-0.97-2.15-2.19-2.88-3.67c-0.74-1.48-1.19-3.17-1.37-5.09c-0.17-1.88-0.02-3.62,0.44-5.2c0.46-1.59,1.19-2.96,2.18-4.13
		c0.99-1.17,2.22-2.11,3.68-2.82c1.46-0.71,3.13-1.15,4.99-1.32c1.86-0.17,3.58-0.03,5.14,0.43c1.57,0.45,2.94,1.17,4.13,2.14
		c1.19,0.97,2.15,2.19,2.88,3.67C220.04,114,220.49,115.66,220.66,117.51z M204.09,119c0.18,1.95,0.68,3.4,1.52,4.37
		c0.83,0.97,1.92,1.39,3.24,1.28c1.33-0.12,2.3-0.74,2.91-1.85c0.62-1.12,0.84-2.63,0.66-4.55c-0.17-1.91-0.67-3.36-1.49-4.33
		c-0.82-0.97-1.89-1.4-3.22-1.28c-1.33,0.12-2.3,0.73-2.94,1.83C204.15,115.58,203.92,117.09,204.09,119z M233.68,128.01
		c-0.31,0.12-0.8,0.26-1.47,0.42c-0.67,0.16-1.37,0.27-2.09,0.33c-0.69,0.06-1.32,0.07-1.88,0.03c-0.56-0.05-1.04-0.2-1.45-0.45
		c-0.4-0.25-0.73-0.62-0.98-1.09c-0.25-0.48-0.41-1.11-0.48-1.91l-1.3-14.35c-0.07-0.73,0.01-1.38,0.23-1.93
		c0.22-0.55,0.56-1.06,1.03-1.52c0.47-0.46,1.06-0.89,1.77-1.29c0.71-0.4,1.48-0.77,2.31-1.1c0.83-0.33,1.69-0.61,2.6-0.84
		c0.9-0.23,1.81-0.38,2.73-0.46c1.51-0.14,2.74,0.05,3.68,0.56c0.94,0.51,1.47,1.44,1.59,2.77c0.04,0.45,0.02,0.89-0.07,1.33
		c-0.09,0.44-0.21,0.85-0.37,1.22c-0.66,0.06-1.34,0.15-2.03,0.28c-0.69,0.13-1.36,0.28-2.01,0.47c-0.65,0.19-1.26,0.38-1.83,0.58
		c-0.57,0.2-1.05,0.41-1.45,0.64L233.68,128.01z M253.28,126.24c-0.34,0.1-0.85,0.23-1.51,0.4c-0.67,0.17-1.35,0.29-2.04,0.35
		c-0.69,0.06-1.32,0.07-1.88,0.03c-0.56-0.05-1.04-0.2-1.45-0.45c-0.4-0.25-0.73-0.62-0.98-1.09c-0.25-0.48-0.41-1.11-0.48-1.91
		l-2.5-27.75c0.34-0.09,0.85-0.23,1.51-0.4c0.67-0.17,1.35-0.29,2.04-0.35c0.69-0.06,1.32-0.07,1.88-0.03
		c0.56,0.05,1.04,0.2,1.45,0.45c0.4,0.25,0.73,0.62,0.98,1.09c0.25,0.48,0.41,1.11,0.48,1.91L253.28,126.24z M256.3,114.29
		c-0.19-2.11-0.04-3.96,0.45-5.56c0.49-1.6,1.25-2.97,2.28-4.09c1.03-1.12,2.27-2,3.72-2.63c1.45-0.63,3.05-1.02,4.79-1.18
		c0.63-0.06,1.25-0.06,1.86,0c0.61,0.06,1.11,0.15,1.5,0.27l-0.7-7.75c0.31-0.12,0.8-0.27,1.49-0.45c0.68-0.17,1.39-0.29,2.11-0.36
		c0.69-0.06,1.32-0.07,1.88-0.03c0.56,0.05,1.04,0.19,1.45,0.45c0.4,0.25,0.72,0.62,0.96,1.1c0.23,0.48,0.39,1.12,0.46,1.91
		l2.05,22.68c0.14,1.5-0.45,2.76-1.76,3.78c-0.86,0.69-2,1.33-3.41,1.92c-1.41,0.59-3.06,0.98-4.96,1.15
		c-2.05,0.19-3.92,0.06-5.59-0.36c-1.68-0.43-3.13-1.13-4.34-2.12c-1.22-0.98-2.19-2.21-2.91-3.67
		C256.92,117.9,256.48,116.21,256.3,114.29z M269.21,107.1c-1.7,0.15-2.97,0.77-3.8,1.84c-0.83,1.07-1.15,2.61-0.97,4.62
		c0.18,1.98,0.74,3.43,1.68,4.36c0.94,0.93,2.22,1.32,3.83,1.17c0.57-0.05,1.07-0.19,1.51-0.4c0.44-0.22,0.78-0.45,1.01-0.69
		l-0.95-10.53C270.87,107.14,270.09,107.02,269.21,107.1z M292.34,94.78c0.07,0.73,0.15,1.8,0.24,3.19c0.09,1.39,0.17,2.9,0.22,4.51
		c0.05,1.62,0.07,3.24,0.06,4.87c-0.01,1.63-0.08,3.04-0.19,4.24c-0.12,0.11-0.3,0.22-0.54,0.34c-0.24,0.12-0.5,0.22-0.78,0.31
		c-0.28,0.09-0.56,0.16-0.84,0.22c-0.28,0.06-0.53,0.1-0.75,0.12c-0.92,0.08-1.69,0.01-2.33-0.22c-0.64-0.23-1.08-0.75-1.31-1.57
		c-0.22-0.72-0.46-1.82-0.7-3.31c-0.25-1.49-0.5-3.11-0.75-4.85c-0.25-1.75-0.48-3.48-0.68-5.2c-0.2-1.72-0.36-3.18-0.47-4.4
		c0.6-0.41,1.29-0.75,2.08-1.03c0.79-0.28,1.57-0.46,2.36-0.53c1.29-0.12,2.32,0.1,3.09,0.64
		C291.79,92.65,292.23,93.54,292.34,94.78z M285.81,119.68c-0.12-1.31,0.19-2.42,0.92-3.34c0.73-0.92,1.8-1.44,3.22-1.57
		c1.42-0.13,2.57,0.19,3.45,0.97c0.88,0.77,1.38,1.81,1.5,3.12c0.12,1.31-0.19,2.42-0.92,3.34c-0.73,0.92-1.8,1.44-3.22,1.57
		c-1.42,0.13-2.57-0.19-3.45-0.97C286.42,122.03,285.92,120.99,285.81,119.68z"/>
</g>
</svg>
